<svg width="20" height="21" viewBox="0 0 20 21" fill="none" xmlns="http://www.w3.org/2000/svg">
<path d="M0.75 10.2512C0.75 6.48019 0.75 4.59419 1.8048 3.42319C2.8596 2.25219 4.5561 2.25119 7.95 2.25119H11.55C14.9439 2.25119 16.6413 2.25119 17.6952 3.42319C18.7491 4.59519 18.75 6.48019 18.75 10.2512V12.2512C18.75 16.0222 18.75 17.9082 17.6952 19.0792C16.6404 20.2502 14.9439 20.2512 11.55 20.2512H7.95C4.5561 20.2512 2.8587 20.2512 1.8048 19.0792C0.7509 17.9072 0.75 16.0222 0.75 12.2512V10.2512Z" stroke="#777777" stroke-width="1.5"/>
<path d="M5.24922 2.25V0.75M14.2492 2.25V0.75M1.19922 7.25H18.2992" stroke="#777777" stroke-width="1.5" stroke-linecap="round"/>
<path d="M5.25195 14.7492C5.33989 14.7494 5.43666 14.7874 5.5166 14.8762C5.59824 14.9669 5.65137 15.1006 5.65137 15.2492C5.65137 15.3979 5.59824 15.5316 5.5166 15.6223C5.43666 15.7111 5.33989 15.7491 5.25195 15.7492C5.16388 15.7492 5.0664 15.7113 4.98633 15.6223C4.9047 15.5316 4.85156 15.3978 4.85156 15.2492C4.85156 15.1006 4.9047 14.9669 4.98633 14.8762C5.0664 14.7872 5.16388 14.7492 5.25195 14.7492ZM9.75195 14.7492C9.83989 14.7494 9.93666 14.7874 10.0166 14.8762C10.0982 14.9669 10.1514 15.1006 10.1514 15.2492C10.1514 15.3979 10.0982 15.5316 10.0166 15.6223C9.93666 15.7111 9.83989 15.7491 9.75195 15.7492C9.66388 15.7492 9.5664 15.7113 9.48633 15.6223C9.4047 15.5316 9.35156 15.3978 9.35156 15.2492C9.35156 15.1006 9.4047 14.9669 9.48633 14.8762C9.5664 14.7872 9.66388 14.7492 9.75195 14.7492ZM14.252 14.7492C14.3399 14.7494 14.4367 14.7874 14.5166 14.8762C14.5982 14.9669 14.6514 15.1006 14.6514 15.2492C14.6514 15.3979 14.5982 15.5316 14.5166 15.6223C14.4367 15.7111 14.3399 15.7491 14.252 15.7492C14.1639 15.7492 14.0664 15.7113 13.9863 15.6223C13.9047 15.5316 13.8516 15.3979 13.8516 15.2492C13.8516 15.1006 13.9047 14.9669 13.9863 14.8762C14.0664 14.7872 14.1639 14.7492 14.252 14.7492ZM5.25195 10.7492C5.33989 10.7494 5.43666 10.7874 5.5166 10.8762C5.59824 10.9669 5.65137 11.1006 5.65137 11.2492C5.65137 11.3979 5.59824 11.5316 5.5166 11.6223C5.43666 11.7111 5.33989 11.7491 5.25195 11.7492C5.16389 11.7492 5.0664 11.7113 4.98633 11.6223C4.9047 11.5316 4.85156 11.3978 4.85156 11.2492C4.85156 11.1006 4.9047 10.9669 4.98633 10.8762C5.0664 10.7872 5.16389 10.7492 5.25195 10.7492ZM9.75195 10.7492C9.83989 10.7494 9.93666 10.7874 10.0166 10.8762C10.0982 10.9669 10.1514 11.1006 10.1514 11.2492C10.1514 11.3979 10.0982 11.5316 10.0166 11.6223C9.93666 11.7111 9.83989 11.7491 9.75195 11.7492C9.66389 11.7492 9.5664 11.7113 9.48633 11.6223C9.4047 11.5316 9.35156 11.3978 9.35156 11.2492C9.35156 11.1006 9.4047 10.9669 9.48633 10.8762C9.5664 10.7872 9.66389 10.7492 9.75195 10.7492ZM14.252 10.7492C14.3399 10.7494 14.4367 10.7874 14.5166 10.8762C14.5982 10.9669 14.6514 11.1006 14.6514 11.2492C14.6514 11.3979 14.5982 11.5316 14.5166 11.6223C14.4367 11.7111 14.3399 11.7491 14.252 11.7492C14.1639 11.7492 14.0664 11.7113 13.9863 11.6223C13.9047 11.5316 13.8516 11.3979 13.8516 11.2492C13.8516 11.1006 13.9047 10.9669 13.9863 10.8762C14.0664 10.7872 14.1639 10.7492 14.252 10.7492Z" fill="black" stroke="#777777"/>
</svg>
