<svg width="19" height="20" viewBox="0 0 19 20" fill="none" xmlns="http://www.w3.org/2000/svg">
<path d="M0.75 15.8144C0.75 16.3139 0.948391 16.7928 1.30153 17.146C1.65467 17.4991 2.13363 17.6975 2.63304 17.6975C3.13246 17.6975 3.61142 17.4991 3.96456 17.146C4.3177 16.7928 4.51609 16.3139 4.51609 15.8144C4.51609 15.315 4.3177 14.8361 3.96456 14.4829C3.61142 14.1298 3.13246 13.9314 2.63304 13.9314C2.13363 13.9314 1.65467 14.1298 1.30153 14.4829C0.948391 14.8361 0.75 15.315 0.75 15.8144Z" stroke="#777777" stroke-width="1.5" stroke-linecap="round" stroke-linejoin="round"/>
<path d="M8.28217 13.9313H2.63304V0.75H0.75" stroke="#777777" stroke-width="1.5" stroke-linecap="round" stroke-linejoin="round"/>
<path d="M2.63258 2.63281L15.8139 3.57433L15.007 9.22158M11.577 10.165H2.63258M12.9893 17.6972L16.7554 13.9311M12.0478 15.8141C12.0478 16.5632 12.3454 17.2817 12.8751 17.8114C13.4048 18.3411 14.1232 18.6387 14.8724 18.6387C15.6215 18.6387 16.3399 18.3411 16.8696 17.8114C17.3993 17.2817 17.6969 16.5632 17.6969 15.8141C17.6969 15.065 17.3993 14.3466 16.8696 13.8168C16.3399 13.2871 15.6215 12.9896 14.8724 12.9896C14.1232 12.9896 13.4048 13.2871 12.8751 13.8168C12.3454 14.3466 12.0478 15.065 12.0478 15.8141Z" stroke="#777777" stroke-width="1.5" stroke-linecap="round" stroke-linejoin="round"/>
</svg>
