<svg width="16" height="12" viewBox="0 0 16 12" fill="none" xmlns="http://www.w3.org/2000/svg">
<mask id="path-1-inside-1_687_3910" fill="white">
<path d="M4.36932 10.6175L11.4016 0.255307C11.4419 0.192035 11.494 0.137736 11.5549 0.0956282C11.6159 0.0535201 11.6844 0.0244603 11.7564 0.0101715C11.8284 -0.00411729 11.9025 -0.00334435 11.9742 0.0124448C12.046 0.0282339 12.1139 0.0587177 12.174 0.102089C12.2341 0.14546 12.2851 0.200836 12.3241 0.264934C12.3631 0.329032 12.3892 0.400547 12.4008 0.47524C12.4125 0.549933 12.4095 0.626283 12.3921 0.699764C12.3746 0.773246 12.343 0.842362 12.2992 0.903017L4.94247 11.7434C4.9004 11.8056 4.84662 11.8584 4.78433 11.8988C4.72205 11.9391 4.65253 11.9661 4.57993 11.9781C4.50732 11.9901 4.43312 11.9869 4.36173 11.9688C4.29033 11.9506 4.22322 11.9178 4.16439 11.8723L0.21918 8.82023C0.161615 8.77569 0.113116 8.7199 0.0764546 8.65604C0.0397929 8.59217 0.0156856 8.52148 0.00550936 8.448C-0.0150426 8.29961 0.0223968 8.14888 0.109591 8.02896C0.196786 7.90904 0.326593 7.82976 0.470456 7.80856C0.61432 7.78736 0.760455 7.82598 0.876715 7.91592L4.36932 10.6175ZM12.1644 5.21769C12.0191 5.21769 11.8797 5.15815 11.7769 5.05215C11.6742 4.94616 11.6164 4.8024 11.6164 4.6525C11.6164 4.5026 11.6742 4.35884 11.7769 4.25285C11.8797 4.14686 12.0191 4.08731 12.1644 4.08731H15.4521C15.5974 4.08731 15.7368 4.14686 15.8395 4.25285C15.9423 4.35884 16 4.5026 16 4.6525C16 4.8024 15.9423 4.94616 15.8395 5.05215C15.7368 5.15815 15.5974 5.21769 15.4521 5.21769H12.1644ZM9.9726 8.60885C9.82728 8.60885 9.68791 8.5493 9.58515 8.44331C9.48239 8.33731 9.42466 8.19355 9.42466 8.04365C9.42466 7.89376 9.48239 7.75 9.58515 7.644C9.68791 7.53801 9.82728 7.47846 9.9726 7.47846H15.451C15.5963 7.47846 15.7357 7.53801 15.8384 7.644C15.9412 7.75 15.9989 7.89376 15.9989 8.04365C15.9989 8.19355 15.9412 8.33731 15.8384 8.44331C15.7357 8.5493 15.5963 8.60885 15.451 8.60885H9.9726ZM7.78082 12C7.6355 12 7.49613 11.9405 7.39337 11.8345C7.29061 11.7285 7.23288 11.5847 7.23288 11.4348C7.23288 11.2849 7.29061 11.1411 7.39337 11.0352C7.49613 10.9292 7.6355 10.8696 7.78082 10.8696H15.451C15.5963 10.8696 15.7357 10.9292 15.8384 11.0352C15.9412 11.1411 15.9989 11.2849 15.9989 11.4348C15.9989 11.5847 15.9412 11.7285 15.8384 11.8345C15.7357 11.9405 15.5963 12 15.451 12H7.78082Z"/>
</mask>
<path d="M4.36932 10.6175L11.4016 0.255307C11.4419 0.192035 11.494 0.137736 11.5549 0.0956282C11.6159 0.0535201 11.6844 0.0244603 11.7564 0.0101715C11.8284 -0.00411729 11.9025 -0.00334435 11.9742 0.0124448C12.046 0.0282339 12.1139 0.0587177 12.174 0.102089C12.2341 0.14546 12.2851 0.200836 12.3241 0.264934C12.3631 0.329032 12.3892 0.400547 12.4008 0.47524C12.4125 0.549933 12.4095 0.626283 12.3921 0.699764C12.3746 0.773246 12.343 0.842362 12.2992 0.903017L4.94247 11.7434C4.9004 11.8056 4.84662 11.8584 4.78433 11.8988C4.72205 11.9391 4.65253 11.9661 4.57993 11.9781C4.50732 11.9901 4.43312 11.9869 4.36173 11.9688C4.29033 11.9506 4.22322 11.9178 4.16439 11.8723L0.21918 8.82023C0.161615 8.77569 0.113116 8.7199 0.0764546 8.65604C0.0397929 8.59217 0.0156856 8.52148 0.00550936 8.448C-0.0150426 8.29961 0.0223968 8.14888 0.109591 8.02896C0.196786 7.90904 0.326593 7.82976 0.470456 7.80856C0.61432 7.78736 0.760455 7.82598 0.876715 7.91592L4.36932 10.6175ZM12.1644 5.21769C12.0191 5.21769 11.8797 5.15815 11.7769 5.05215C11.6742 4.94616 11.6164 4.8024 11.6164 4.6525C11.6164 4.5026 11.6742 4.35884 11.7769 4.25285C11.8797 4.14686 12.0191 4.08731 12.1644 4.08731H15.4521C15.5974 4.08731 15.7368 4.14686 15.8395 4.25285C15.9423 4.35884 16 4.5026 16 4.6525C16 4.8024 15.9423 4.94616 15.8395 5.05215C15.7368 5.15815 15.5974 5.21769 15.4521 5.21769H12.1644ZM9.9726 8.60885C9.82728 8.60885 9.68791 8.5493 9.58515 8.44331C9.48239 8.33731 9.42466 8.19355 9.42466 8.04365C9.42466 7.89376 9.48239 7.75 9.58515 7.644C9.68791 7.53801 9.82728 7.47846 9.9726 7.47846H15.451C15.5963 7.47846 15.7357 7.53801 15.8384 7.644C15.9412 7.75 15.9989 7.89376 15.9989 8.04365C15.9989 8.19355 15.9412 8.33731 15.8384 8.44331C15.7357 8.5493 15.5963 8.60885 15.451 8.60885H9.9726ZM7.78082 12C7.6355 12 7.49613 11.9405 7.39337 11.8345C7.29061 11.7285 7.23288 11.5847 7.23288 11.4348C7.23288 11.2849 7.29061 11.1411 7.39337 11.0352C7.49613 10.9292 7.6355 10.8696 7.78082 10.8696H15.451C15.5963 10.8696 15.7357 10.9292 15.8384 11.0352C15.9412 11.1411 15.9989 11.2849 15.9989 11.4348C15.9989 11.5847 15.9412 11.7285 15.8384 11.8345C15.7357 11.9405 15.5963 12 15.451 12H7.78082Z" fill="black"/>
<path d="M4.36932 10.6175L3.45155 11.804L4.71413 12.7806L5.61049 11.4599L4.36932 10.6175ZM11.4016 0.255307L12.6428 1.09763L12.6555 1.07897L12.6676 1.05994L11.4016 0.255307ZM12.2992 0.903017L11.0835 0.0243158L11.0705 0.0423228L11.058 0.0607075L12.2992 0.903017ZM4.94247 11.7434L3.70129 10.9011L3.69994 10.9031L4.94247 11.7434ZM4.16439 11.8723L3.24656 13.0587L3.24681 13.0589L4.16439 11.8723ZM0.21918 8.82023L1.137 7.63381L1.137 7.63381L0.21918 8.82023ZM0.00550936 8.448L1.49133 8.24222L0.00550936 8.448ZM0.876715 7.91592L-0.0411099 9.10234L-0.0410501 9.10239L0.876715 7.91592ZM4.36932 10.6175L5.61049 11.4599L12.6428 1.09763L11.4016 0.255307L10.1605 -0.587012L3.12815 9.77522L4.36932 10.6175ZM11.4016 0.255307L12.6676 1.05994C12.6015 1.16389 12.5138 1.2563 12.4076 1.32967L11.5549 0.0956282L10.7022 -1.13842C10.4741 -0.980832 10.2822 -0.779815 10.1357 -0.549322L11.4016 0.255307ZM11.5549 0.0956282L12.4076 1.32967C12.3013 1.40313 12.1793 1.45552 12.0483 1.4815L11.7564 0.0101715L11.4645 -1.46116C11.1895 -1.4066 10.9304 -1.29609 10.7022 -1.13842L11.5549 0.0956282ZM11.7564 0.0101715L12.0483 1.4815C11.9172 1.5075 11.7822 1.50607 11.6518 1.47738L11.9742 0.0124448L12.2967 -1.45249C12.0229 -1.51276 11.7396 -1.51573 11.4645 -1.46116L11.7564 0.0101715ZM11.9742 0.0124448L11.6518 1.47738C11.5215 1.4487 11.4008 1.39387 11.2962 1.31844L12.174 0.102089L13.0518 -1.11426C12.8271 -1.27644 12.5704 -1.39224 12.2967 -1.45249L11.9742 0.0124448ZM12.174 0.102089L11.2962 1.31844C11.1918 1.24308 11.1062 1.14914 11.0424 1.04413L12.3241 0.264934L13.6059 -0.514259C13.4641 -0.747463 13.2764 -0.952164 13.0518 -1.11426L12.174 0.102089ZM12.3241 0.264934L11.0424 1.04413C10.9786 0.939222 10.9372 0.824484 10.9188 0.706861L12.4008 0.47524L13.8829 0.243619C13.8411 -0.0233902 13.7476 -0.281158 13.6059 -0.514259L12.3241 0.264934ZM12.4008 0.47524L10.9188 0.706861C10.9005 0.589271 10.9051 0.469139 10.9327 0.352921L12.3921 0.699764L13.8514 1.04661C13.914 0.783427 13.9246 0.510594 13.8829 0.243619L12.4008 0.47524ZM12.3921 0.699764L10.9327 0.352921C10.9604 0.236658 11.0109 0.124742 11.0835 0.0243158L12.2992 0.903017L13.5149 1.78172C13.6751 1.55998 13.7889 1.30983 13.8514 1.04661L12.3921 0.699764ZM12.2992 0.903017L11.058 0.0607075L3.70129 10.9011L4.94247 11.7434L6.18364 12.5857L13.5404 1.74533L12.2992 0.903017ZM4.94247 11.7434L3.69994 10.9031C3.76934 10.8005 3.86023 10.7101 3.96921 10.6396L4.78433 11.8988L5.59945 13.158C5.833 13.0068 6.03145 12.8108 6.185 12.5837L4.94247 11.7434ZM4.78433 11.8988L3.96921 10.6396C4.07831 10.5689 4.20259 10.5201 4.33484 10.4982L4.57993 11.9781L4.82502 13.4579C5.10248 13.412 5.36578 13.3092 5.59945 13.158L4.78433 11.8988ZM4.57993 11.9781L4.33484 10.4982C4.46715 10.4763 4.60244 10.4822 4.73189 10.5152L4.36173 11.9688L3.99156 13.4224C4.26379 13.4917 4.5475 13.5039 4.82502 13.4579L4.57993 11.9781ZM4.36173 11.9688L4.73189 10.5152C4.86126 10.5481 4.9801 10.6069 5.08196 10.6857L4.16439 11.8723L3.24681 13.0589C3.46634 13.2286 3.71941 13.3531 3.99156 13.4224L4.36173 11.9688ZM4.16439 11.8723L5.08221 10.6858L1.137 7.63381L0.21918 8.82023L-0.698644 10.0067L3.24656 13.0587L4.16439 11.8723ZM0.21918 8.82023L1.137 7.63381C1.23653 7.7108 1.3175 7.805 1.37735 7.90927L0.0764546 8.65604L-1.22444 9.4028C-1.09127 9.63481 -0.913304 9.84059 -0.698644 10.0067L0.21918 8.82023ZM0.0764546 8.65604L1.37735 7.90927C1.43716 8.01345 1.47531 8.12661 1.49133 8.24222L0.00550936 8.448L-1.48031 8.65379C-1.44394 8.91635 -1.35757 9.17089 -1.22444 9.4028L0.0764546 8.65604ZM0.00550936 8.448L1.49133 8.24222C1.52337 8.47362 1.46635 8.71364 1.32279 8.91109L0.109591 8.02896L-1.1036 7.14683C-1.42156 7.58411 -1.55346 8.12561 -1.48031 8.65379L0.00550936 8.448ZM0.109591 8.02896L1.32279 8.91109C1.17808 9.11011 0.952906 9.25367 0.689126 9.29254L0.470456 7.80856L0.251787 6.32459C-0.29972 6.40585 -0.784504 6.70797 -1.1036 7.14683L0.109591 8.02896ZM0.470456 7.80856L0.689126 9.29254C0.424559 9.33152 0.161311 9.25894 -0.0411099 9.10234L0.876715 7.91592L1.79454 6.7295C1.3596 6.39303 0.80408 6.24321 0.251787 6.32459L0.470456 7.80856ZM0.876715 7.91592L-0.0410501 9.10239L3.45155 11.804L4.36932 10.6175L5.28708 9.43107L1.79448 6.72945L0.876715 7.91592ZM12.1644 5.21769V3.71769C12.4321 3.71769 12.6792 3.82784 12.8539 4.00805L11.7769 5.05215L10.7 6.09625C11.0802 6.48845 11.606 6.71769 12.1644 6.71769V5.21769ZM11.7769 5.05215L12.8539 4.00805C13.0271 4.18668 13.1164 4.41932 13.1164 4.6525H11.6164H10.1164C10.1164 5.18548 10.3213 5.70564 10.7 6.09625L11.7769 5.05215ZM11.6164 4.6525H13.1164C13.1164 4.88568 13.0271 5.11832 12.8539 5.29695L11.7769 4.25285L10.7 3.20875C10.3213 3.59937 10.1164 4.11952 10.1164 4.6525H11.6164ZM11.7769 4.25285L12.8539 5.29695C12.6792 5.47716 12.4321 5.58731 12.1644 5.58731V4.08731V2.58731C11.606 2.58731 11.0802 2.81655 10.7 3.20875L11.7769 4.25285ZM12.1644 4.08731V5.58731H15.4521V4.08731V2.58731H12.1644V4.08731ZM15.4521 4.08731V5.58731C15.1843 5.58731 14.9373 5.47716 14.7625 5.29695L15.8395 4.25285L16.9165 3.20875C16.5362 2.81655 16.0105 2.58731 15.4521 2.58731V4.08731ZM15.8395 4.25285L14.7625 5.29695C14.5894 5.11832 14.5 4.88568 14.5 4.6525H16H17.5C17.5 4.11952 17.2952 3.59937 16.9165 3.20875L15.8395 4.25285ZM16 4.6525H14.5C14.5 4.41932 14.5894 4.18668 14.7625 4.00805L15.8395 5.05215L16.9165 6.09625C17.2952 5.70564 17.5 5.18548 17.5 4.6525H16ZM15.8395 5.05215L14.7625 4.00805C14.9373 3.82784 15.1843 3.71769 15.4521 3.71769V5.21769V6.71769C16.0105 6.71769 16.5362 6.48845 16.9165 6.09625L15.8395 5.05215ZM15.4521 5.21769V3.71769H12.1644V5.21769V6.71769H15.4521V5.21769ZM9.9726 8.60885V7.10885C10.2404 7.10885 10.4874 7.21899 10.6621 7.3992L9.58515 8.44331L8.50818 9.48741C8.88841 9.87961 9.4142 10.1088 9.9726 10.1088V8.60885ZM9.58515 8.44331L10.6621 7.3992C10.8353 7.57783 10.9247 7.81047 10.9247 8.04365H9.42466H7.92466C7.92466 8.57663 8.12949 9.09679 8.50818 9.48741L9.58515 8.44331ZM9.42466 8.04365H10.9247C10.9247 8.27684 10.8353 8.50947 10.6621 8.6881L9.58515 7.644L8.50818 6.5999C8.12949 6.99052 7.92466 7.51068 7.92466 8.04365H9.42466ZM9.58515 7.644L10.6621 8.6881C10.4874 8.86831 10.2404 8.97846 9.9726 8.97846V7.47846V5.97846C9.4142 5.97846 8.88841 6.2077 8.50818 6.5999L9.58515 7.644ZM9.9726 7.47846V8.97846H15.451V7.47846V5.97846H9.9726V7.47846ZM15.451 7.47846V8.97846C15.1832 8.97846 14.9362 8.86831 14.7615 8.6881L15.8384 7.644L16.9154 6.5999C16.5351 6.2077 16.0094 5.97846 15.451 5.97846V7.47846ZM15.8384 7.644L14.7615 8.6881C14.5883 8.50947 14.4989 8.27684 14.4989 8.04365H15.9989H17.4989C17.4989 7.51068 17.2941 6.99052 16.9154 6.5999L15.8384 7.644ZM15.9989 8.04365H14.4989C14.4989 7.81047 14.5883 7.57783 14.7615 7.3992L15.8384 8.44331L16.9154 9.48741C17.2941 9.09679 17.4989 8.57663 17.4989 8.04365H15.9989ZM15.8384 8.44331L14.7615 7.3992C14.9362 7.21899 15.1832 7.10885 15.451 7.10885V8.60885V10.1088C16.0094 10.1088 16.5351 9.87961 16.9154 9.48741L15.8384 8.44331ZM15.451 8.60885V7.10885H9.9726V8.60885V10.1088H15.451V8.60885ZM7.78082 12V10.5C8.04858 10.5 8.29562 10.6101 8.47033 10.7904L7.39337 11.8345L6.3164 12.8786C6.69663 13.2708 7.22241 13.5 7.78082 13.5V12ZM7.39337 11.8345L8.47033 10.7904C8.64351 10.969 8.73288 11.2016 8.73288 11.4348H7.23288H5.73288C5.73288 11.9678 5.93771 12.4879 6.3164 12.8786L7.39337 11.8345ZM7.23288 11.4348H8.73288C8.73288 11.668 8.64351 11.9006 8.47033 12.0793L7.39337 11.0352L6.3164 9.99105C5.93771 10.3817 5.73288 10.9018 5.73288 11.4348H7.23288ZM7.39337 11.0352L8.47033 12.0793C8.29562 12.2595 8.04858 12.3696 7.78082 12.3696V10.8696V9.36962C7.22241 9.36962 6.69663 9.59886 6.3164 9.99105L7.39337 11.0352ZM7.78082 10.8696V12.3696H15.451V10.8696V9.36962H7.78082V10.8696ZM15.451 10.8696V12.3696C15.1832 12.3696 14.9362 12.2595 14.7615 12.0793L15.8384 11.0352L16.9154 9.99105C16.5351 9.59886 16.0094 9.36962 15.451 9.36962V10.8696ZM15.8384 11.0352L14.7615 12.0793C14.5883 11.9006 14.4989 11.668 14.4989 11.4348H15.9989H17.4989C17.4989 10.9018 17.2941 10.3817 16.9154 9.99105L15.8384 11.0352ZM15.9989 11.4348H14.4989C14.4989 11.2016 14.5883 10.969 14.7615 10.7904L15.8384 11.8345L16.9154 12.8786C17.2941 12.4879 17.4989 11.9678 17.4989 11.4348H15.9989ZM15.8384 11.8345L14.7615 10.7904C14.9362 10.6101 15.1832 10.5 15.451 10.5V12V13.5C16.0094 13.5 16.5351 13.2708 16.9154 12.8786L15.8384 11.8345ZM15.451 12V10.5H7.78082V12V13.5H15.451V12Z" fill="#777777" mask="url(#path-1-inside-1_687_3910)"/>
</svg>
