<svg width="9" height="8" viewBox="0 0 9 8" fill="none" xmlns="http://www.w3.org/2000/svg">
<path d="M8.54973 -6.19888e-06L0.449499 -6.19888e-06C0.367488 0.000290871 0.287101 0.0264001 0.216989 0.07551C0.146876 0.12462 0.0896959 0.194871 0.0516005 0.278703C0.013505 0.362535 -0.0040617 0.456773 0.000790596 0.551272C0.00564289 0.645771 0.0327311 0.736953 0.0791388 0.815003L4.12925 7.56779C4.29711 7.84777 4.70122 7.84777 4.86952 7.56779L8.91964 0.815003C8.96652 0.737115 8.99401 0.645888 8.99913 0.551231C9.00424 0.456575 8.98679 0.36211 8.94866 0.2781C8.91053 0.194091 8.85318 0.12375 8.78285 0.074719C8.71252 0.0256886 8.63189 -0.000155449 8.54973 -6.19888e-06Z" fill="#000000"/>
</svg>