<svg width="23" height="24" viewBox="0 0 23 24" fill="none" xmlns="http://www.w3.org/2000/svg">
<path d="M11.2483 15.2281C13.0935 15.2281 14.5893 13.7323 14.5893 11.8871C14.5893 10.0419 13.0935 8.54604 11.2483 8.54604C9.40306 8.54604 7.90723 10.0419 7.90723 11.8871C7.90723 13.7323 9.40306 15.2281 11.2483 15.2281Z" stroke="#777777" stroke-width="1.5"/>
<path d="M13.2156 0.91928C12.8069 0.75 12.288 0.75 11.25 0.75C10.212 0.75 9.69307 0.75 9.28435 0.91928C9.01393 1.03122 8.76822 1.19536 8.56126 1.40231C8.35431 1.60926 8.19017 1.85497 8.07823 2.1254C7.97578 2.37375 7.93457 2.66442 7.91898 3.0865C7.91173 3.39157 7.82721 3.68982 7.67335 3.95334C7.51948 4.21687 7.30128 4.43706 7.03917 4.59332C6.77278 4.74229 6.47296 4.82126 6.16775 4.82282C5.86254 4.82437 5.56192 4.74848 5.29403 4.60223C4.91983 4.40399 4.64921 4.29485 4.38081 4.25921C3.79537 4.18222 3.20331 4.34085 2.73479 4.70023C2.38509 4.97085 2.12449 5.41967 1.60551 6.31841C1.08654 7.21715 0.825936 7.66596 0.769139 8.10587C0.730867 8.39593 0.750117 8.69069 0.825788 8.97331C0.901459 9.25593 1.03207 9.52087 1.21016 9.75301C1.37498 9.96683 1.60551 10.1461 1.96301 10.3711C2.48978 10.7019 2.82834 11.2654 2.82834 11.8868C2.82834 12.5083 2.48978 13.0718 1.96301 13.4014C1.60551 13.6275 1.37387 13.8068 1.21016 14.0206C1.03207 14.2528 0.901459 14.5177 0.825788 14.8003C0.750117 15.0829 0.730867 15.3777 0.769139 15.6678C0.82705 16.1066 1.08654 16.5565 1.6044 17.4552C2.12449 18.354 2.38398 18.8028 2.73479 19.0734C2.96692 19.2515 3.23186 19.3821 3.51448 19.4578C3.7971 19.5335 4.09186 19.5527 4.38192 19.5144C4.64921 19.4788 4.91983 19.3697 5.29403 19.1714C5.56192 19.0252 5.86254 18.9493 6.16775 18.9508C6.47296 18.9524 6.77278 19.0313 7.03917 19.1803C7.57708 19.4922 7.8967 20.0657 7.91898 20.6871C7.93457 21.1103 7.97466 21.3999 8.07823 21.6482C8.19017 21.9187 8.35431 22.1644 8.56126 22.3713C8.76822 22.5783 9.01393 22.7424 9.28435 22.8544C9.69307 23.0236 10.212 23.0236 11.25 23.0236C12.288 23.0236 12.8069 23.0236 13.2156 22.8544C13.4861 22.7424 13.7318 22.5783 13.9387 22.3713C14.1457 22.1644 14.3098 21.9187 14.4218 21.6482C14.5242 21.3999 14.5654 21.1103 14.581 20.6871C14.6033 20.0657 14.9229 19.491 15.4608 19.1803C15.7272 19.0313 16.027 18.9524 16.3323 18.9508C16.6375 18.9493 16.9381 19.0252 17.206 19.1714C17.5802 19.3697 17.8508 19.4788 18.1181 19.5144C18.4081 19.5527 18.7029 19.5335 18.9855 19.4578C19.2681 19.3821 19.5331 19.2515 19.7652 19.0734C20.116 18.8039 20.3755 18.354 20.8945 17.4552C21.4135 16.5565 21.6741 16.1077 21.7309 15.6678C21.7691 15.3777 21.7499 15.0829 21.6742 14.8003C21.5985 14.5177 21.4679 14.2528 21.2898 14.0206C21.125 13.8068 20.8945 13.6275 20.537 13.4025C20.2763 13.2437 20.0602 13.0214 19.9088 12.7563C19.7575 12.4912 19.6759 12.192 19.6717 11.8868C19.6717 11.2654 20.0102 10.7019 20.537 10.3722C20.8945 10.1461 21.1261 9.96683 21.2898 9.75301C21.4679 9.52087 21.5985 9.25593 21.6742 8.97331C21.7499 8.69069 21.7691 8.39593 21.7309 8.10587C21.6729 7.66708 21.4135 7.21715 20.8956 6.31841C20.3755 5.41967 20.116 4.97085 19.7652 4.70023C19.5331 4.52214 19.2681 4.39153 18.9855 4.31586C18.7029 4.24019 18.4081 4.22094 18.1181 4.25921C17.8508 4.29485 17.5802 4.40399 17.2049 4.60223C16.9371 4.74828 16.6367 4.82407 16.3317 4.82251C16.0267 4.82095 15.7271 4.7421 15.4608 4.59332C15.1987 4.43706 14.9805 4.21687 14.8267 3.95334C14.6728 3.68982 14.5883 3.39157 14.581 3.0865C14.5654 2.66331 14.5253 2.37375 14.4218 2.1254C14.3098 1.85497 14.1457 1.60926 13.9387 1.40231C13.7318 1.19536 13.4861 1.03122 13.2156 0.91928Z" stroke="#777777" stroke-width="1.5"/>
</svg>
