<svg width="17" height="17" viewBox="0 0 17 17" fill="none" xmlns="http://www.w3.org/2000/svg">
<path fill-rule="evenodd" clip-rule="evenodd" d="M1.2444 1.2444C0 2.4905 0 4.4931 0 8.5C0 12.5069 0 14.5104 1.2444 15.7548C2.4905 17 4.4931 17 8.5 17C12.5069 17 14.5104 17 15.7548 15.7548C17 14.5112 17 12.5069 17 8.5C17 4.4931 17 2.48965 15.7548 1.2444C14.5112 0 12.5069 0 8.5 0C4.4931 0 2.48965 0 1.2444 1.2444ZM9.9875 6.8C9.9875 7.1519 10.2731 7.4375 10.625 7.4375H11.2115L9.50045 9.14855C9.48071 9.16834 9.45726 9.18404 9.43144 9.19475C9.40563 9.20547 9.37795 9.21098 9.35 9.21098C9.32205 9.21098 9.29437 9.20547 9.26856 9.19475C9.24274 9.18404 9.21929 9.16834 9.19955 9.14855L7.85145 7.80045C7.57252 7.52172 7.19433 7.36514 6.8 7.36514C6.40567 7.36514 6.02748 7.52172 5.74855 7.80045L3.7995 9.7495C3.73687 9.80786 3.68663 9.87824 3.65179 9.95644C3.61694 10.0346 3.59821 10.1191 3.5967 10.2047C3.59519 10.2903 3.61093 10.3753 3.643 10.4547C3.67506 10.534 3.72278 10.6061 3.78332 10.6667C3.84385 10.7272 3.91596 10.7749 3.99534 10.807C4.07472 10.8391 4.15975 10.8548 4.24534 10.8533C4.33094 10.8518 4.41536 10.8331 4.49356 10.7982C4.57176 10.7634 4.64214 10.7131 4.7005 10.6505L6.64955 8.70145C6.66929 8.68166 6.69274 8.66596 6.71856 8.65525C6.74437 8.64454 6.77205 8.63902 6.8 8.63902C6.82795 8.63902 6.85563 8.64454 6.88144 8.65525C6.90726 8.66596 6.93071 8.68166 6.95045 8.70145L8.29855 10.0496C8.57748 10.3283 8.95567 10.4849 9.35 10.4849C9.74433 10.4849 10.1225 10.3283 10.4015 10.0496L12.1125 8.33935V8.925C12.1125 9.09408 12.1797 9.25623 12.2992 9.37578C12.4188 9.49533 12.5809 9.5625 12.75 9.5625C12.9191 9.5625 13.0812 9.49533 13.2008 9.37578C13.3203 9.25623 13.3875 9.09408 13.3875 8.925V6.8C13.3875 6.63092 13.3203 6.46877 13.2008 6.34922C13.0812 6.22967 12.9191 6.1625 12.75 6.1625H10.625C10.4559 6.1625 10.2938 6.22967 10.1742 6.34922C10.0547 6.46877 9.9875 6.63092 9.9875 6.8Z" fill="#3AB54A"/>
</svg>
