<svg width="26" height="21" viewBox="0 0 26 21" fill="none" xmlns="http://www.w3.org/2000/svg">
<path d="M1.85714 1.85718V16.7143C1.85714 17.2069 2.05281 17.6792 2.40109 18.0275C2.74937 18.3758 3.22174 18.5715 3.71429 18.5715H22.2857C22.7783 18.5715 23.2506 18.3758 23.5989 18.0275C23.9472 17.6792 24.1429 17.2069 24.1429 16.7143V1.85718H1.85714ZM1.85714 3.8147e-05H24.1429C24.6354 3.8147e-05 25.1078 0.195701 25.4561 0.543983C25.8043 0.892264 26 1.36464 26 1.85718V16.7143C26 17.6994 25.6087 18.6442 24.9121 19.3407C24.2155 20.0373 23.2708 20.4286 22.2857 20.4286H3.71429C2.7292 20.4286 1.78445 20.0373 1.08789 19.3407C0.391325 18.6442 0 17.6994 0 16.7143V1.85718C0 1.36464 0.195663 0.892264 0.543944 0.543983C0.892226 0.195701 1.3646 3.8147e-05 1.85714 3.8147e-05Z" fill="#777777"/>
<path d="M24.375 1.85741L17.1934 10.066C16.6705 10.6638 16.0258 11.1429 15.3026 11.4711C14.5793 11.7994 13.7942 11.9692 13 11.9692C12.2058 11.9692 11.4207 11.7994 10.6974 11.4711C9.97421 11.1429 9.3295 10.6638 8.80657 10.066L1.625 1.85741H24.375ZM4.09314 1.85741L10.2031 8.84213C10.5518 9.24077 10.9816 9.56025 11.4638 9.77914C11.946 9.99803 12.4695 10.1113 12.9991 10.1113C13.5286 10.1113 14.0521 9.99803 14.5343 9.77914C15.0165 9.56025 15.4464 9.24077 15.795 8.84213L21.9069 1.85741H4.09314Z" fill="#777777"/>
</svg>
