<svg width="17" height="17" viewBox="0 0 17 17" fill="none" xmlns="http://www.w3.org/2000/svg">
<path fill-rule="evenodd" clip-rule="evenodd" d="M1.2444 1.2444C0 2.4905 0 4.4931 0 8.5C0 12.5069 0 14.5104 1.2444 15.7548C2.4905 17 4.4931 17 8.5 17C12.5069 17 14.5104 17 15.7548 15.7548C17 14.5112 17 12.5069 17 8.5C17 4.4931 17 2.48965 15.7548 1.2444C14.5112 0 12.5069 0 8.5 0C4.4931 0 2.48965 0 1.2444 1.2444ZM4.7005 6.3495C4.57965 6.23689 4.41981 6.17559 4.25466 6.1785C4.0895 6.18142 3.93192 6.24832 3.81512 6.36512C3.69832 6.48192 3.63142 6.6395 3.6285 6.80466C3.62559 6.96981 3.68689 7.12965 3.7995 7.2505L5.74855 9.19955C6.02748 9.47828 6.40567 9.63486 6.8 9.63486C7.19433 9.63486 7.57252 9.47828 7.85145 9.19955L9.19955 7.85145C9.21929 7.83166 9.24274 7.81596 9.26856 7.80525C9.29437 7.79453 9.32205 7.78902 9.35 7.78902C9.37795 7.78902 9.40563 7.79453 9.43144 7.80525C9.45726 7.81596 9.48071 7.83166 9.50045 7.85145L11.2107 9.5625H10.625C10.4559 9.5625 10.2938 9.62967 10.1742 9.74922C10.0547 9.86877 9.9875 10.0309 9.9875 10.2C9.9875 10.3691 10.0547 10.5312 10.1742 10.6508C10.2938 10.7703 10.4559 10.8375 10.625 10.8375H12.75C12.9191 10.8375 13.0812 10.7703 13.2008 10.6508C13.3203 10.5312 13.3875 10.3691 13.3875 10.2V8.075C13.3875 7.90592 13.3203 7.74377 13.2008 7.62422C13.0812 7.50467 12.9191 7.4375 12.75 7.4375C12.5809 7.4375 12.4188 7.50467 12.2992 7.62422C12.1797 7.74377 12.1125 7.90592 12.1125 8.075V8.6615L10.4015 6.95045C10.1225 6.67172 9.74433 6.51514 9.35 6.51514C8.95567 6.51514 8.57748 6.67172 8.29855 6.95045L6.95045 8.29855C6.93071 8.31834 6.90726 8.33404 6.88144 8.34475C6.85563 8.35547 6.82795 8.36098 6.8 8.36098C6.77205 8.36098 6.74437 8.35547 6.71856 8.34475C6.69274 8.33404 6.66929 8.31834 6.64955 8.29855L4.7005 6.3495Z" fill="#FF0000"/>
</svg>
