<svg width="17" height="17" viewBox="0 0 17 17" fill="none" xmlns="http://www.w3.org/2000/svg">
<path fill-rule="evenodd" clip-rule="evenodd" d="M2.43506 7.30761C2.43506 5.58359 2.91598 4.40745 3.66111 3.66233C4.40745 2.91598 5.58237 2.43506 7.30761 2.43506C9.03284 2.43506 10.2078 2.91598 10.9529 3.66233C11.698 4.40867 12.1802 5.58359 12.1802 7.30761C12.1802 9.03163 11.6992 10.2078 10.9529 10.9541C10.2065 11.7004 9.03163 12.1802 7.30761 12.1802C5.58359 12.1802 4.40745 11.7004 3.66111 10.9541C2.91598 10.2078 2.43506 9.03284 2.43506 7.30761ZM7.30761 0C5.13432 0 3.26541 0.614852 1.93952 1.93952C0.613634 3.26419 0 5.13432 0 7.30882C0 9.48089 0.614852 11.351 1.93952 12.6757C3.26419 14.0004 5.13432 14.6152 7.30761 14.6152C9.00241 14.6152 10.5134 14.2414 11.7248 13.4464L14.9366 16.6582C15.1663 16.88 15.4738 17.0027 15.793 17C16.1123 16.9972 16.4177 16.8691 16.6434 16.6434C16.8691 16.4177 16.9972 16.1123 17 15.793C17.0027 15.4738 16.88 15.1663 16.6582 14.9366L13.4476 11.726C14.2414 10.5134 14.6152 9.00362 14.6152 7.30761C14.6152 5.13432 14.0004 3.26541 12.6757 1.93952C11.351 0.613634 9.48089 0 7.30517 0" fill="#777777"/>
</svg>
