<svg width="25" height="25" viewBox="0 0 25 25" fill="none" xmlns="http://www.w3.org/2000/svg">
<path d="M8.66667 4.06667H4.06667C3.25334 4.06667 2.47332 4.38976 1.89821 4.96487C1.32309 5.53998 1 6.32 1 7.13333V20.9333C1 21.7467 1.32309 22.5267 1.89821 23.1018C2.47332 23.6769 3.25334 24 4.06667 24H17.8667C18.68 24 19.46 23.6769 20.0351 23.1018C20.6102 22.5267 20.9333 21.7467 20.9333 20.9333V16.3333M14.8 5.6C14.8 6.82 15.2846 7.99002 16.1473 8.85269C17.01 9.71536 18.18 10.2 19.4 10.2C20.62 10.2 21.79 9.71536 22.6527 8.85269C23.5154 7.99002 24 6.82 24 5.6C24 4.38 23.5154 3.20998 22.6527 2.34731C21.79 1.48464 20.62 1 19.4 1C18.18 1 17.01 1.48464 16.1473 2.34731C15.2846 3.20998 14.8 4.38 14.8 5.6Z" stroke="black" stroke-width="2" stroke-linecap="round" stroke-linejoin="round"/>
</svg>
