<svg width="23" height="23" viewBox="0 0 23 23" fill="none" xmlns="http://www.w3.org/2000/svg">
<path d="M6.91584 4.42559e-07C6.25869 4.42559e-07 5.73954 3.72107e-07 5.25062 0.139316C4.82035 0.263584 4.41637 0.46535 4.05855 0.734693C3.65244 1.04224 3.34226 1.45756 2.94797 1.98328L0.992296 4.59216C0.724179 4.94965 0.513891 5.2296 0.361432 5.54634C0.226514 5.82626 0.127593 6.12214 0.0670294 6.42692C1.56677e-07 6.77258 0 7.1235 0 7.57036V17.8508C0 18.5526 -3.67211e-08 19.1388 0.0394289 19.6172C0.0788579 20.1167 0.16823 20.5845 0.39429 21.0275C0.740831 21.7077 1.29386 22.2607 1.97408 22.6073C2.417 22.8333 2.88489 22.9227 3.38432 22.9621C3.86404 23.0015 4.4489 23.0015 5.15205 23.0015H17.8482C18.5513 23.0015 19.1362 23.0015 19.6159 22.9621C20.1153 22.9227 20.5832 22.8333 21.0261 22.6073C21.7062 22.2611 22.2592 21.7085 22.6059 21.0288C22.832 20.5845 22.9214 20.1167 22.9608 19.6172C23.0002 19.1388 23.0002 18.5526 23.0002 17.8508V7.56773C23.0002 7.12219 23.0002 6.77127 22.9332 6.42561C22.8731 6.12089 22.7746 5.82501 22.6401 5.54503C22.4863 5.2296 22.2761 4.94834 22.0079 4.59085L20.0523 1.98459C19.658 1.45756 19.3478 1.04224 18.9417 0.736008C18.584 0.466199 18.18 0.263985 17.7496 0.139316C17.2607 -0.00131393 16.7429 4.42559e-07 16.0844 4.42559e-07H6.91584ZM11.9443 1.97145L12.3544 5.2572H10.6458L11.0559 1.97145H11.9443ZM7.0315 1.97145H9.06866L8.6586 5.2572H2.95717L4.45547 3.25946C4.95228 2.59705 5.09291 2.42488 5.24931 2.30528C5.41265 2.18338 5.59648 2.09169 5.79211 2.03453C5.98137 1.98065 6.20349 1.97145 7.0315 1.97145ZM1.97276 7.22864H8.54294V12.1573C8.54294 13.4269 9.57335 14.4573 10.843 14.4573H12.1573C12.7673 14.4573 13.3523 14.215 13.7836 13.7836C14.215 13.3523 14.4573 12.7673 14.4573 12.1573V7.22864H21.0275L21.0288 7.64528V17.8087C21.0288 18.5605 21.0288 19.0665 20.9959 19.4543C20.9657 19.8328 20.9105 20.0128 20.85 20.1311C20.6924 20.4407 20.4407 20.6924 20.1311 20.85C20.0128 20.9105 19.8328 20.9657 19.4556 20.9959C19.0665 21.0275 18.5618 21.0288 17.8087 21.0288H5.19148C4.4397 21.0288 3.9337 21.0288 3.54598 20.9959C3.16746 20.9657 2.9874 20.9105 2.86911 20.85C2.55948 20.6924 2.30779 20.4407 2.15019 20.1311C2.08974 20.0128 2.03453 19.8328 2.00431 19.4543C1.97276 19.0665 1.97145 18.5605 1.97145 17.8087V7.64528L1.97276 7.22864ZM10.5144 7.22864H12.4858V12.1573C12.4858 12.2444 12.4512 12.328 12.3896 12.3896C12.328 12.4512 12.2444 12.4858 12.1573 12.4858H10.843C10.7558 12.4858 10.6722 12.4512 10.6106 12.3896C10.549 12.328 10.5144 12.2444 10.5144 12.1573V7.22864ZM20.0431 5.2572H14.3416L13.9316 1.97145H15.9687C16.7967 1.97145 17.0189 1.98065 17.2081 2.03453C17.407 2.09236 17.5879 2.18261 17.7509 2.30528C17.9086 2.42488 18.048 2.59705 18.5448 3.25946L20.0431 5.2572Z" fill="black"/>
</svg>
