<svg width="23" height="23" viewBox="0 0 23 23" fill="none" xmlns="http://www.w3.org/2000/svg">
<path d="M18.4 18.4C19.01 18.4 19.595 18.6423 20.0263 19.0737C20.4577 19.505 20.7 20.09 20.7 20.7C20.7 21.31 20.4577 21.895 20.0263 22.3263C19.595 22.7577 19.01 23 18.4 23C17.79 23 17.205 22.7577 16.7737 22.3263C16.3423 21.895 16.1 21.31 16.1 20.7C16.1 19.4235 17.1235 18.4 18.4 18.4ZM0 0H3.7605L4.8415 2.3H21.85C22.155 2.3 22.4475 2.42116 22.6632 2.63683C22.8788 2.85249 23 3.145 23 3.45C23 3.6455 22.9425 3.841 22.862 4.025L18.745 11.4655C18.354 12.167 17.595 12.65 16.7325 12.65H8.165L7.13 14.5245L7.0955 14.6625C7.0955 14.7387 7.12579 14.8119 7.17971 14.8658C7.23362 14.9197 7.30675 14.95 7.383 14.95H20.7V17.25H6.9C6.29 17.25 5.70499 17.0077 5.27365 16.5763C4.84232 16.145 4.6 15.56 4.6 14.95C4.6 14.5475 4.7035 14.168 4.876 13.846L6.44 11.0285L2.3 2.3H0V0ZM6.9 18.4C7.51 18.4 8.09501 18.6423 8.52635 19.0737C8.95768 19.505 9.2 20.09 9.2 20.7C9.2 21.31 8.95768 21.895 8.52635 22.3263C8.09501 22.7577 7.51 23 6.9 23C6.29 23 5.70499 22.7577 5.27365 22.3263C4.84232 21.895 4.6 21.31 4.6 20.7C4.6 19.4235 5.6235 18.4 6.9 18.4ZM17.25 10.35L20.447 4.6H5.911L8.625 10.35H17.25Z" fill="black"/>
</svg>
