<svg width="15" height="15" viewBox="0 0 15 15" fill="none" xmlns="http://www.w3.org/2000/svg">
<mask id="path-1-inside-1_687_4283" fill="white">
<path d="M4.82673 2.98507H3.4901C4.60396 2.01493 5.94059 1.49254 7.42574 1.49254C7.64851 1.49254 7.87129 1.49254 8.09406 1.56716C8.46535 1.64179 8.83663 1.34328 8.91089 0.895522C8.98515 0.522388 8.68812 0.149254 8.24257 0.0746268C7.94554 -7.22818e-08 7.72277 0 7.42574 0C5.64356 0 3.93564 0.671642 2.59901 1.79104V0.746269C2.59901 0.298507 2.30198 0 1.85644 0C1.41089 0 1.11386 0.298507 1.11386 0.746269V3.73134C1.11386 4.1791 1.41089 4.47761 1.85644 4.47761H4.82673C5.27228 4.47761 5.56931 4.1791 5.56931 3.73134C5.56931 3.28358 5.27228 2.98507 4.82673 2.98507ZM3.71287 9.32836C3.26733 9.32836 2.9703 9.62687 2.9703 10.0746V11.4179C2.00495 10.2985 1.48515 8.95522 1.48515 7.46269C1.48515 7.23881 1.48515 7.01493 1.55941 6.79104C1.63366 6.41791 1.33663 6.04478 0.891089 5.97015C0.519802 5.89552 0.148515 6.19403 0.0742574 6.64179C-7.19239e-08 6.9403 0 7.16418 0 7.46269C0 9.25373 0.668317 10.9701 1.78218 12.3134H0.742574C0.29703 12.3134 0 12.6119 0 13.0597C0 13.5075 0.29703 13.806 0.742574 13.806H3.71287C3.93564 13.806 4.15842 13.6567 4.30693 13.5075C4.30693 13.4328 4.38119 13.3582 4.38119 13.2836V10.0746C4.45545 9.62687 4.15842 9.32836 3.71287 9.32836ZM14.1089 2.61194C14.5545 2.61194 14.8515 2.31343 14.8515 1.86567C14.8515 1.41791 14.5545 1.1194 14.1089 1.1194H10.9901C10.9158 1.1194 10.8416 1.19403 10.7673 1.19403C10.6931 1.26866 10.6188 1.26866 10.6188 1.34328C10.6188 1.41791 10.5446 1.49254 10.5446 1.49254V4.70149C10.5446 5.14925 10.8416 5.44776 11.2871 5.44776C11.7327 5.44776 12.0297 5.14925 12.0297 4.70149V3.50746C12.995 4.55224 13.5149 5.97015 13.5149 7.46269C13.5149 7.68657 13.5149 7.91045 13.4406 8.13433C13.3663 8.50746 13.6634 8.8806 14.1089 8.95522H14.1832C14.5545 8.95522 14.8515 8.65672 14.9257 8.28358C14.9257 7.98507 15 7.76119 15 7.46269C15 5.67164 14.3317 3.95522 13.2178 2.61194H14.1089ZM13.5891 10.8209L13.3663 10.597C13.2921 10.5224 13.2178 10.5224 13.1436 10.5224H10.0248C9.57921 10.5224 9.28218 10.8209 9.28218 11.2687C9.28218 11.7164 9.57921 12.0149 10.0248 12.0149H11.3614C10.3218 12.9851 8.91089 13.5075 7.42574 13.5075C7.20297 13.5075 6.9802 13.5075 6.75743 13.4328C6.38614 13.3582 6.01485 13.6567 5.94059 14.1045C5.86634 14.5522 6.16337 14.8507 6.60891 14.9254C6.90594 14.9254 7.12871 15 7.42574 15C9.20792 15 10.9158 14.3284 12.2525 13.209V14.1791C12.2525 14.6269 12.5495 14.9254 12.995 14.9254C13.4406 14.9254 13.7376 14.6269 13.7376 14.1791V11.194C13.7376 11.0448 13.6634 10.8955 13.5891 10.8209Z"/>
</mask>
<path d="M4.82673 2.98507H3.4901C4.60396 2.01493 5.94059 1.49254 7.42574 1.49254C7.64851 1.49254 7.87129 1.49254 8.09406 1.56716C8.46535 1.64179 8.83663 1.34328 8.91089 0.895522C8.98515 0.522388 8.68812 0.149254 8.24257 0.0746268C7.94554 -7.22818e-08 7.72277 0 7.42574 0C5.64356 0 3.93564 0.671642 2.59901 1.79104V0.746269C2.59901 0.298507 2.30198 0 1.85644 0C1.41089 0 1.11386 0.298507 1.11386 0.746269V3.73134C1.11386 4.1791 1.41089 4.47761 1.85644 4.47761H4.82673C5.27228 4.47761 5.56931 4.1791 5.56931 3.73134C5.56931 3.28358 5.27228 2.98507 4.82673 2.98507ZM3.71287 9.32836C3.26733 9.32836 2.9703 9.62687 2.9703 10.0746V11.4179C2.00495 10.2985 1.48515 8.95522 1.48515 7.46269C1.48515 7.23881 1.48515 7.01493 1.55941 6.79104C1.63366 6.41791 1.33663 6.04478 0.891089 5.97015C0.519802 5.89552 0.148515 6.19403 0.0742574 6.64179C-7.19239e-08 6.9403 0 7.16418 0 7.46269C0 9.25373 0.668317 10.9701 1.78218 12.3134H0.742574C0.29703 12.3134 0 12.6119 0 13.0597C0 13.5075 0.29703 13.806 0.742574 13.806H3.71287C3.93564 13.806 4.15842 13.6567 4.30693 13.5075C4.30693 13.4328 4.38119 13.3582 4.38119 13.2836V10.0746C4.45545 9.62687 4.15842 9.32836 3.71287 9.32836ZM14.1089 2.61194C14.5545 2.61194 14.8515 2.31343 14.8515 1.86567C14.8515 1.41791 14.5545 1.1194 14.1089 1.1194H10.9901C10.9158 1.1194 10.8416 1.19403 10.7673 1.19403C10.6931 1.26866 10.6188 1.26866 10.6188 1.34328C10.6188 1.41791 10.5446 1.49254 10.5446 1.49254V4.70149C10.5446 5.14925 10.8416 5.44776 11.2871 5.44776C11.7327 5.44776 12.0297 5.14925 12.0297 4.70149V3.50746C12.995 4.55224 13.5149 5.97015 13.5149 7.46269C13.5149 7.68657 13.5149 7.91045 13.4406 8.13433C13.3663 8.50746 13.6634 8.8806 14.1089 8.95522H14.1832C14.5545 8.95522 14.8515 8.65672 14.9257 8.28358C14.9257 7.98507 15 7.76119 15 7.46269C15 5.67164 14.3317 3.95522 13.2178 2.61194H14.1089ZM13.5891 10.8209L13.3663 10.597C13.2921 10.5224 13.2178 10.5224 13.1436 10.5224H10.0248C9.57921 10.5224 9.28218 10.8209 9.28218 11.2687C9.28218 11.7164 9.57921 12.0149 10.0248 12.0149H11.3614C10.3218 12.9851 8.91089 13.5075 7.42574 13.5075C7.20297 13.5075 6.9802 13.5075 6.75743 13.4328C6.38614 13.3582 6.01485 13.6567 5.94059 14.1045C5.86634 14.5522 6.16337 14.8507 6.60891 14.9254C6.90594 14.9254 7.12871 15 7.42574 15C9.20792 15 10.9158 14.3284 12.2525 13.209V14.1791C12.2525 14.6269 12.5495 14.9254 12.995 14.9254C13.4406 14.9254 13.7376 14.6269 13.7376 14.1791V11.194C13.7376 11.0448 13.6634 10.8955 13.5891 10.8209Z" fill="black" stroke="#777777" stroke-width="3" mask="url(#path-1-inside-1_687_4283)"/>
</svg>
