<svg width="44" height="42" viewBox="0 0 44 42" fill="none" xmlns="http://www.w3.org/2000/svg">
<path d="M17.0202 13.3337L18.2185 17.6686C19.347 21.7521 19.9101 23.7951 21.5691 24.7235C23.2281 25.6542 25.3339 25.1051 29.5454 24.0115L34.0129 22.8481C38.2244 21.7545 40.3302 21.2077 41.2888 19.5998C42.2475 17.9897 41.6844 15.9468 40.5535 11.8632L39.3576 7.53069C38.2291 3.44481 37.6636 1.40187 36.007 0.473474C34.3456 -0.45725 32.2398 0.0918767 28.0283 1.1878L23.5608 2.34655C19.3493 3.44016 17.2436 3.98928 16.2872 5.59944C15.3286 7.20726 15.8917 9.2502 17.0202 13.3337Z" fill="#00853D"/>
<path d="M0.0632611 5.22955C0.124565 5.00856 0.228826 4.80182 0.370083 4.62115C0.51134 4.44048 0.686822 4.28943 0.886497 4.17663C1.08617 4.06382 1.30612 3.99148 1.53377 3.96374C1.76143 3.936 1.99231 3.9534 2.21323 4.01495L6.17579 5.11321C7.22566 5.39905 8.18371 5.95169 8.95676 6.71741C9.72982 7.48313 10.2916 8.43586 10.5874 9.48296L15.5924 27.5995L15.96 28.8723C17.444 29.4192 18.6944 30.4602 19.5014 31.8203L20.2227 31.597L40.8615 26.2337C41.0834 26.1759 41.3144 26.1624 41.5415 26.194C41.7685 26.2255 41.9871 26.3014 42.1848 26.4175C42.3825 26.5335 42.5554 26.6873 42.6937 26.8702C42.8319 27.053 42.9328 27.2613 42.9906 27.4832C43.0483 27.705 43.0618 27.936 43.0303 28.1631C42.9987 28.3901 42.9228 28.6088 42.8068 28.8065C42.6907 29.0042 42.5369 29.1771 42.3541 29.3153C42.1712 29.4536 41.9629 29.5544 41.7411 29.6122L21.1791 34.9545L20.4112 35.1919C20.3973 38.1469 18.3566 40.8507 15.269 41.6511C11.5693 42.6144 7.765 40.483 6.77378 36.8951C5.78256 33.3072 7.97907 29.6145 11.6787 28.6535C11.8633 28.607 12.0471 28.5667 12.2301 28.5326L7.22285 10.4114C7.08745 9.94611 6.83425 9.52369 6.48777 9.18495C6.14129 8.84622 5.71325 8.60264 5.24507 8.47778L1.28018 7.3772C1.05924 7.31612 0.852488 7.21212 0.671746 7.07113C0.491004 6.93014 0.33981 6.75492 0.226802 6.55548C0.113794 6.35604 0.0411854 6.13629 0.0131246 5.90878C-0.0149362 5.68128 0.00210041 5.45047 0.0632611 5.22955Z" fill="#00853D"/>
</svg>
