<?xml version="1.0" encoding="UTF-8"?>
<svg version="1.1" xmlns="http://www.w3.org/2000/svg" width="225" height="225">
<path d="M0 0 C10.62965519 9.21765622 18.3677097 19.89614361 19.66015625 34.19921875 C20.74542555 61.94691482 2.8928737 91.46099615 -8.65008545 115.87506104 C-9.76332274 118.23352556 -10.8723353 120.59395226 -11.98095703 122.95458984 C-14.13429826 127.53882029 -16.29330623 132.12034407 -18.45626831 136.70004272 C-19.32128826 138.53236628 -20.18516699 140.36522904 -21.04788208 142.19863892 C-22.26195421 144.77643356 -23.48173371 147.35144805 -24.703125 149.92578125 C-25.07031143 150.70785446 -25.43749786 151.48992767 -25.81581116 152.29570007 C-28.40406365 157.7282824 -28.40406365 157.7282824 -30.6328125 159.95703125 C-69.95372084 79.44460087 -69.95372084 79.44460087 -78.6328125 49.95703125 C-78.83777344 49.28929687 -79.04273438 48.6215625 -79.25390625 47.93359375 C-81.59945989 35.69802529 -79.27548739 22.99142994 -72.3828125 12.64453125 C-63.40056772 0.87798129 -53.18395016 -6.28074018 -38.7578125 -9.73046875 C-24.79058594 -11.12719141 -11.29827116 -8.7670561 0 0 Z M-55.6328125 20.95703125 C-60.85191285 28.60775789 -62.22615398 36.85407382 -61.23046875 45.9296875 C-59.6207139 54.08367451 -55.28456317 60.98399565 -48.6328125 65.95703125 C-40.64998108 71.07123544 -32.97602218 72.10729864 -23.6328125 70.95703125 C-14.72029014 68.86719842 -7.88812698 63.59053816 -2.7578125 56.08203125 C1.62066827 48.37531341 2.06171161 40.56670891 0.3671875 31.95703125 C-1.90397493 24.3165446 -6.33670897 17.62471957 -13.16796875 13.3828125 C-28.31907425 5.59527816 -44.15783217 7.85642871 -55.6328125 20.95703125 Z " fill="#F6F6F4" transform="translate(142.6328125,37.04296875)"/>
</svg>
