<svg width="18" height="19" viewBox="0 0 18 19" fill="none" xmlns="http://www.w3.org/2000/svg">
<path d="M12.24 8.03846C12.24 8.47206 12.1133 8.89592 11.876 9.25644C11.6386 9.61697 11.3013 9.89796 10.9066 10.0639C10.5119 10.2298 10.0776 10.2732 9.6586 10.1886C9.23961 10.1041 8.85473 9.89526 8.55265 9.58866C8.25057 9.28206 8.04485 8.89143 7.9615 8.46616C7.87816 8.04089 7.92094 7.60009 8.08442 7.1995C8.24791 6.79891 8.52476 6.45652 8.87997 6.21562C9.23518 5.97473 9.65279 5.84615 10.08 5.84615C10.6529 5.84615 11.2023 6.07713 11.6074 6.48827C12.0124 6.8994 12.24 7.45703 12.24 8.03846ZM18 1.46154V17.5385C18 17.9261 17.8483 18.2978 17.5782 18.5719C17.3082 18.846 16.9419 19 16.56 19H3.6C3.21809 19 2.85182 18.846 2.58177 18.5719C2.31171 18.2978 2.16 17.9261 2.16 17.5385V15.3462H0.72C0.529044 15.3462 0.345909 15.2692 0.210883 15.1321C0.0758569 14.9951 0 14.8092 0 14.6154C0 14.4216 0.0758569 14.2357 0.210883 14.0987C0.345909 13.9616 0.529044 13.8846 0.72 13.8846H2.16V10.2308H0.72C0.529044 10.2308 0.345909 10.1538 0.210883 10.0167C0.0758569 9.87969 0 9.69381 0 9.5C0 9.30619 0.0758569 9.12031 0.210883 8.98327C0.345909 8.84622 0.529044 8.76923 0.72 8.76923H2.16V5.11538H0.72C0.529044 5.11538 0.345909 5.03839 0.210883 4.90135C0.0758569 4.7643 0 4.57843 0 4.38462C0 4.1908 0.0758569 4.00493 0.210883 3.86788C0.345909 3.73084 0.529044 3.65385 0.72 3.65385H2.16V1.46154C2.16 1.07391 2.31171 0.702166 2.58177 0.428075C2.85182 0.153983 3.21809 0 3.6 0H16.56C16.9419 0 17.3082 0.153983 17.5782 0.428075C17.8483 0.702166 18 1.07391 18 1.46154ZM14.976 12.7154C14.3384 11.8479 13.4882 11.1648 12.51 10.7341C13.0461 10.2373 13.4217 9.58759 13.5875 8.87026C13.7534 8.15292 13.7016 7.40147 13.4391 6.71451C13.1766 6.02755 12.7156 5.43719 12.1166 5.02091C11.5176 4.60462 10.8087 4.38186 10.0827 4.38186C9.35675 4.38186 8.64775 4.60462 8.04877 5.02091C7.44978 5.43719 6.98879 6.02755 6.72629 6.71451C6.46379 7.40147 6.41205 8.15292 6.57786 8.87026C6.74367 9.58759 7.11928 10.2373 7.6554 10.7341C6.6752 11.164 5.8231 11.8471 5.184 12.7154C5.12727 12.7922 5.08599 12.8795 5.06253 12.9725C5.03906 13.0654 5.03386 13.1622 5.04724 13.2572C5.06061 13.3522 5.09229 13.4436 5.14046 13.5262C5.18863 13.6087 5.25236 13.6809 5.328 13.7385C5.40364 13.796 5.48972 13.8379 5.58131 13.8618C5.6729 13.8856 5.76822 13.8908 5.86182 13.8773C5.95543 13.8637 6.04548 13.8315 6.12684 13.7827C6.2082 13.7338 6.27927 13.6691 6.336 13.5923C6.77193 13.0024 7.3372 12.5236 7.98704 12.1938C8.63688 11.864 9.35345 11.6923 10.08 11.6923C10.8065 11.6923 11.5231 11.864 12.173 12.1938C12.8228 12.5236 13.3881 13.0024 13.824 13.5923C13.9386 13.7474 14.1091 13.8499 14.2982 13.8773C14.4872 13.9047 14.6792 13.8547 14.832 13.7385C14.9848 13.6222 15.0858 13.4491 15.1128 13.2572C15.1398 13.0653 15.0906 12.8704 14.976 12.7154Z" fill="white"/>
</svg>
