<svg width="41" height="41" viewBox="0 0 41 41" fill="none" xmlns="http://www.w3.org/2000/svg">
<path d="M29.2857 0C23.8971 0 19.5238 4.48 19.5238 10C19.5238 15.52 23.8971 20 29.2857 20C34.6743 20 39.0476 15.52 39.0476 10C39.0476 4.48 34.6743 0 29.2857 0ZM29.2857 16C26.0448 16 23.4286 13.32 23.4286 10C23.4286 6.68 26.0448 4 29.2857 4C32.5267 4 35.1429 6.68 35.1429 10C35.1429 13.32 32.5267 16 29.2857 16ZM35.1429 28H31.2381C31.2381 25.6 29.7738 23.44 27.5871 22.6L15.5605 18H0V40H11.7143V37.12L25.381 41L41 36V34C41 30.68 38.3838 28 35.1429 28ZM7.80952 36H3.90476V22H7.80952V36ZM25.3224 36.82L11.7143 33V22H14.8576L26.2205 26.34C26.8843 26.6 27.3333 27.26 27.3333 28C27.3333 28 23.4286 27.9 22.8429 27.7L18.1962 26.12L16.9662 29.92L21.6129 31.5C22.6086 31.84 23.6433 32 24.6976 32H35.1429C35.9043 32 36.5876 32.48 36.9 33.14L25.3224 36.82Z" fill="#00853D"/>
</svg>
